<svg id="Layer_1" data-name="Layer 1" xmlns="http://www.w3.org/2000/svg" viewBox="0 0 180 108"><defs><style>.cls-1{fill:#fff;}</style></defs><title>Island Health_solid-white</title><path class="cls-1" d="M108.52,103.3V92q0-4.34-3.93-4.34c-1.84,0-3.27.82-5,2.83V79.31H95.82v24h3.74V94.09l.5-.56c1.62-1.84,2.71-2.67,3.49-2.67s1.22.69,1.22,2.6v9.84Z"/><path class="cls-1" d="M124.67,101.82l-1.37-3a9.45,9.45,0,0,1-2.78,1.45,5.24,5.24,0,0,1-1.72.26,3.71,3.71,0,0,1-3.24-1.84,5,5,0,0,1-.5-2.44h9.61V94.58c0-4.15-2.49-7-6.08-7-4.15,0-7.27,3.65-7.27,8.49,0,4.67,2.71,7.67,7,7.67a10.92,10.92,0,0,0,4.77-1.09c.34-.17.87-.43,1.56-.82Zm-3.74-8h-5.68c.31-2.08,1.44-3.26,3.09-3.26s2.5.92,2.59,3.26Z"/><path class="cls-1" d="M139,100.54c-1-.1-1.15-.33-1.15-1.71V92.44c0-3.36-1.56-4.87-5-4.87-3.93,0-6.17,1.55-6.17,4.25a2.58,2.58,0,0,0,.19,1.05l3.55-.82a1.21,1.21,0,0,1-.09-.4c0-.76.9-1.38,2-1.38s1.78.76,1.78,2.4V94L130,95.21c-2.12.66-3,1.38-3.49,2.8a5.14,5.14,0,0,0-.25,1.55,4,4,0,0,0,4.21,4.15,5.58,5.58,0,0,0,4.05-1.88c.66,1.35,1.25,1.68,3.12,1.68h.78l.59-3Zm-4.9-1.05a5.87,5.87,0,0,1-1,.69,3.13,3.13,0,0,1-1.53.46,1.42,1.42,0,0,1-1.5-1.58,3.32,3.32,0,0,1,.28-1.28l3.71-1.28v3Z"/><polygon class="cls-1" points="145.63 103.3 145.63 79.31 141.91 79.31 141.91 103.3 145.63 103.3 145.63 103.3"/><path class="cls-1" d="M157.19,101.82,156,99a3.84,3.84,0,0,1-2,1c-.59,0-.75-.49-.75-2.2V90.89h3.15V88h-3.15V83.42h-3.53V88l-2.15.39v2.5h2.15v9.51c0,2.27.9,3.32,2.84,3.32a6.42,6.42,0,0,0,3.24-1l1.37-.89Z"/><path class="cls-1" d="M172,103.3V92q0-4.34-3.93-4.34c-1.84,0-3.28.82-5,2.83V79.31h-3.75v24h3.75V94.09l.5-.56c1.62-1.84,2.71-2.67,3.49-2.67s1.21.69,1.21,2.6v9.84Z"/><path class="cls-1" d="M16.28,85.12a2.74,2.74,0,0,1,0-5.33,2.75,2.75,0,0,1,0,5.33Zm-1.87,18.14V87.95h3.71v15.31Z"/><path class="cls-1" d="M31.75,92.19c-.37-.26-.72-.49-1-.66a6.5,6.5,0,0,0-3.34-1.05c-1.43,0-2.37.59-2.37,1.45,0,.69.5,1.12,1.81,1.61a21.59,21.59,0,0,1,4.37,2.11A4.34,4.34,0,0,1,32.72,99c0,2.8-2.31,4.64-5.8,4.64a10.77,10.77,0,0,1-2.37-.3A11.53,11.53,0,0,1,21,102l1.18-3.19a11.88,11.88,0,0,0,3.12,1.61,4.84,4.84,0,0,0,1.62.3c1.43,0,2.28-.49,2.28-1.31s-.47-1.22-1.47-1.61l-2.5-1c-2.56-1-3.74-2.47-3.74-4.51,0-2.86,2.37-4.8,5.9-4.8a11.45,11.45,0,0,1,2.4.3A8.22,8.22,0,0,1,32.94,89Z"/><path class="cls-1" d="M35.93,103.25v-24h3.71v24Z"/><path class="cls-1" d="M54.77,103.45H54c-1.87,0-2.46-.33-3.12-1.68a5.59,5.59,0,0,1-4.06,1.88,4,4,0,0,1-4.21-4.15A5.16,5.16,0,0,1,42.86,98c.5-1.42,1.37-2.14,3.49-2.8l4.12-1.25V92.62c0-1.65-.56-2.4-1.78-2.4s-2,.62-2,1.38a1.17,1.17,0,0,0,.09.39l-3.56.82A2.59,2.59,0,0,1,43,91.76c0-2.7,2.25-4.25,6.18-4.25,3.46,0,5,1.51,5,4.87v6.38c0,1.38.16,1.61,1.15,1.71Zm-4.3-7-3.71,1.29A3.32,3.32,0,0,0,46.47,99a1.42,1.42,0,0,0,1.5,1.58,3.13,3.13,0,0,0,1.53-.46,5.8,5.8,0,0,0,1-.69Z"/><path class="cls-1" d="M67.53,103.25V93.41c0-1.91-.31-2.6-1.22-2.6s-1.87.82-3.49,2.67l-.5.56v9.22H58.58V87.95h3.74v2.54c1.75-2,3.18-2.83,5-2.83q3.93,0,3.93,4.34v11.26Z"/><path class="cls-1" d="M84.25,103.25v-2.08a4.09,4.09,0,0,1-1.47,1.65,4.84,4.84,0,0,1-2.71.86c-3.43,0-6-3.23-6-7.64,0-4.74,3.09-8.56,6.92-8.56a4.39,4.39,0,0,1,1.28.16,4.14,4.14,0,0,1,1.93.92V79.26H88v24Zm0-9.15a8.8,8.8,0,0,0-.19-2,2.47,2.47,0,0,0-2.43-1.42c-2.06,0-3.59,2.14-3.59,5s1.22,4.71,3,4.71c1.15,0,2.31-.82,3.21-2.3Z"/><polygon class="cls-1" points="108.22 22.88 85.66 45.44 65.04 24.52 87.6 1.96 108.22 22.88"/><path class="cls-1" d="M163.27,52.35H94.64L91.1,51l-3.25-1.19-3.27-1.15L119.29,14l3.1-3.1Z"/><path class="cls-1" d="M46.67,42.89c-9.68.58-18.95,2.86-29.49,6.84L52.71,14.21,64,25.61,84.58,46.52,83,48.14a92.72,92.72,0,0,0-31.27-5.4C50,42.74,48.33,42.79,46.67,42.89Z"/><path class="cls-1" d="M176,52.42c-15.51,13.81-28.32,20.64-49.1,20.64-14.94,0-27.14-.92-42.16-8.36-13.52-5-20.46-9.79-35.76-10.85C32,52.66,21.26,55.27,3.47,57Q5.79,56,8,55H8c2.26-1,4.46-1.9,6.59-2.74,1.11-.44,2.2-.86,3.28-1.26,9.67-3.61,18.27-5.78,27.14-6.51q3.38-.28,6.82-.28a89.37,89.37,0,0,1,26.53,3.91c1.16.34,2.32.71,3.48,1.08l1.63.54L87.11,51l3,1.08h0l.63.23,5.42,2,.54.2c13.72,4.63,22.16,6,36.65,6,15.68,0,25.41-1.61,39.24-6.84h0C173.71,53.34,174.85,52.89,176,52.42Z"/></svg>